<svg xmlns="http://www.w3.org/2000/svg" version="1.1" viewBox="0 0 20 32">
<!-- <symbol id="brei-icon-coastline-logo" viewBox="0 0 20 32"> -->
	<title>coastline-logo</title>
	<path d="M2.948 1.7c-0.146 0.6-0.679 1.038-1.314 1.038-0.008 0-0.016-0-0.023-0h0.001c-0.011 0-0.023 0-0.035 0-0.756 0-1.369-0.613-1.369-1.369s0.613-1.369 1.369-1.369c0.012 0 0.025 0 0.037 0.001l-0.002-0c0.006-0 0.013-0 0.020-0 0.64 0 1.175 0.445 1.314 1.042l0.002 0.009h-0.705c-0.096-0.268-0.346-0.456-0.641-0.458h-0c-0.452 0-0.706 0.396-0.706 0.77 0 0.399 0.275 0.784 0.71 0.784 0.42 0 0.592-0.353 0.635-0.446z" fill="#fff" style="fill: var(--color3, #fff)"></path>
	<path d="M3.184 1.398c-0-0.011-0-0.023-0-0.036 0-0.752 0.61-1.362 1.362-1.362 0.010 0 0.020 0 0.030 0l-0.002-0c0.011-0 0.023-0 0.035-0 0.756 0 1.369 0.613 1.369 1.369s-0.613 1.369-1.369 1.369c-0.012 0-0.025-0-0.037-0.001l0.002 0c-0.009 0-0.020 0-0.030 0-0.743 0-1.347-0.596-1.36-1.335l-0-0.001zM3.858 1.366c0 0.402 0.275 0.78 0.727 0.78 0.478 0 0.71-0.435 0.71-0.774s-0.232-0.78-0.717-0.78c-0.467 0-0.72 0.399-0.72 0.77z" fill="#fff" style="fill: var(--color3, #fff)"></path>
	<path d="M6.642 2.692h-0.733l1.047-2.642h0.581l1.012 2.642h-0.733l-0.125-0.382h-0.928zM7.216 0.86l-0.286 0.916h0.582z" fill="#fff" style="fill: var(--color3, #fff)"></path>
	<path d="M9.341 1.814c0 0.307 0.189 0.36 0.275 0.36 0.001 0 0.002 0 0.003 0 0.14 0 0.254-0.113 0.255-0.253v-0c0-0.139-0.111-0.183-0.517-0.354-0.183-0.074-0.641-0.26-0.641-0.756 0-0.531 0.481-0.812 0.923-0.812 0.366 0 0.877 0.183 0.887 0.824h-0.67c-0.014-0.092-0.036-0.256-0.242-0.256-0.004-0-0.009-0-0.014-0-0.115 0-0.209 0.088-0.218 0.2l-0 0.001c0 0.121 0.071 0.153 0.55 0.366 0.492 0.221 0.616 0.449 0.616 0.756 0 0.42-0.221 0.844-0.916 0.844s-0.969-0.407-0.952-0.923z" fill="#fff" style="fill: var(--color3, #fff)"></path>
	<path d="M11.18 0.642h-0.52v-0.593h1.711v0.593h-0.517v2.050h-0.674z" fill="#fff" style="fill: var(--color3, #fff)"></path>
	<path d="M12.66 0.049h0.675v2.046h0.781v0.596h-1.456z" fill="#fff" style="fill: var(--color3, #fff)"></path>
	<path d="M14.378 0.049h0.674v2.642h-0.674z" fill="#fff" style="fill: var(--color3, #fff)"></path>
	<path d="M17.123 1.658l-0.015-1.608h0.646v2.642h-0.584l-1.007-1.59 0.012 1.59h-0.641v-2.642h0.582z" fill="#fff" style="fill: var(--color3, #fff)"></path>
	<path d="M18.236 0.049h1.493v0.593h-0.82v0.409h0.795v0.592h-0.795v0.452h0.82v0.596h-1.493z" fill="#fff" style="fill: var(--color3, #fff)"></path>
	<path d="M0.211 4.655c-0-0.003-0-0.008-0-0.012 0-0.437 0.354-0.791 0.791-0.791 0.012 0 0.023 0 0.035 0.001l-0.002-0c0.009-0 0.020-0.001 0.031-0.001 0.214 0 0.407 0.088 0.546 0.23l0 0-0.105 0.106c-0.113-0.113-0.27-0.184-0.443-0.184-0.008 0-0.016 0-0.025 0l0.001-0c-0.007-0-0.016-0-0.024-0-0.361 0-0.653 0.292-0.653 0.653s0.292 0.653 0.653 0.653c0.009 0 0.017-0 0.026-0l-0.001 0c0.006 0 0.013 0 0.020 0 0.175 0 0.333-0.072 0.446-0.189l0-0 0.105 0.102c-0.139 0.144-0.334 0.233-0.549 0.233-0.010 0-0.021-0-0.031-0.001l0.002 0c-0.010 0-0.021 0.001-0.032 0.001-0.437 0-0.79-0.354-0.79-0.79 0-0.004 0-0.008 0-0.012v0.001z" fill="#fff" style="fill: var(--color3, #fff)"></path>
	<path d="M3.261 4.655c-0-0.003-0-0.006-0-0.009 0-0.439 0.356-0.794 0.794-0.794 0.011 0 0.021 0 0.032 0.001l-0.002-0c0.008-0 0.018-0 0.027-0 0.443 0 0.802 0.359 0.802 0.802s-0.359 0.802-0.802 0.802c-0.010 0-0.019-0-0.028-0l0.001 0c-0.009 0-0.020 0.001-0.030 0.001-0.439 0-0.794-0.356-0.794-0.794 0-0.003 0-0.006 0-0.008v0zM4.749 4.655c0-0.003 0-0.007 0-0.010 0-0.366-0.296-0.662-0.662-0.662s-0.662 0.296-0.662 0.662c0 0.365 0.295 0.661 0.66 0.662h0c0.006 0 0.014 0 0.021 0 0.354 0 0.641-0.287 0.641-0.641 0-0.004-0-0.008-0-0.012v0.001z" fill="#fff" style="fill: var(--color3, #fff)"></path>
	<path d="M6.751 3.867h0.167v1.432h0.883v0.14h-1.050z" fill="#fff" style="fill: var(--color3, #fff)"></path>
	<path d="M9.541 3.867h0.167v1.432h0.88v0.14h-1.047z" fill="#fff" style="fill: var(--color3, #fff)"></path>
	<path d="M13.445 5.299v0.14h-1.117v-1.573h1.081v0.144h-0.916v0.561h0.815v0.141h-0.815v0.586z" fill="#fff" style="fill: var(--color3, #fff)"></path>
	<path d="M16.402 4.655h0.16v0.601c-0.149 0.125-0.344 0.201-0.556 0.201-0.008 0-0.016-0-0.024-0l0.001 0c-0.48 0-0.831-0.341-0.831-0.801s0.351-0.802 0.833-0.802c0.010-0 0.022-0.001 0.034-0.001 0.215 0 0.41 0.087 0.551 0.229l0 0-0.104 0.105c-0.122-0.13-0.294-0.211-0.486-0.211-0.368 0-0.666 0.298-0.666 0.666s0.298 0.666 0.666 0.666c0.003 0 0.007-0 0.010-0h-0.001c0.007 0 0.016 0 0.025 0 0.145 0 0.279-0.045 0.39-0.123l-0.002 0.001z" fill="#fff" style="fill: var(--color3, #fff)"></path>
	<path d="M19.611 5.299v0.14h-1.115v-1.573h1.081v0.144h-0.916v0.561h0.815v0.141h-0.815v0.586z" fill="#fff" style="fill: var(--color3, #fff)"></path>
	<path d="M0.202 3.163h19.454c0.059 0 0.106 0.048 0.106 0.106s-0.048 0.106-0.106 0.106h-19.454c-0.059 0-0.106-0.048-0.106-0.106s0.048-0.106 0.106-0.106z" fill="#fff" style="fill: var(--color3, #fff)"></path>
	<path d="M0.082 5.873h19.697v18.558l-9.767 7.57-10.011-7.733s0.147-18.456 0.082-18.395z" fill="#fff" style="fill: var(--color3, #fff)"></path>
	<path d="M1.872 7.716h16.116v4.395l-3.174 2.256v-3.721h-10.174l0.081 11.721 5.331 3.989 4.762-3.663v-1.477l3.174-2.262v4.553l-7.976 6.43-8.139-6.43v-15.79z" fill="#000" style="fill: var(--color5, #000)"></path>
	<!-- </symbol> -->
</svg>